<?xml version="1.0" standalone="no"?><!DOCTYPE svg PUBLIC "-//W3C//DTD SVG 1.1//EN" "http://www.w3.org/Graphics/SVG/1.1/DTD/svg11.dtd"><svg width="100%" height="100%" viewBox="0 0 512 512" version="1.1" xmlns="http://www.w3.org/2000/svg" xmlns:xlink="http://www.w3.org/1999/xlink" xml:space="preserve" style="fill-rule:evenodd;clip-rule:evenodd;stroke-linejoin:round;stroke-miterlimit:1.41421;"><path id="black" d="M396.213,61.26l-280.426,0c-19.3572,0 -35.0532,15.696 -35.0532,35.0532l0,319.374c0,19.3572 15.696,35.0532 35.0532,35.0532l280.426,0c19.3572,0 35.0532,-15.696 35.0532,-35.0532l0,-319.374c0,-19.3572 -15.696,-35.0532 -35.0532,-35.0532ZM168.367,392.318l0,-77.896l43.8165,38.948l-43.8165,38.948ZM304.685,392.318l0,-116.308c-0.189872,-9.08949 -4.56665,-20.0095 -24.3425,-20.0095c-39.6004,0 -84.0206,19.917 -84.4636,20.1166l-27.5119,12.4634l0,-168.898l38.948,0l0,110.569c19.4448,-6.32905 46.6256,-13.1985 73.0275,-13.1985c24.0747,0 38.4855,9.46437 46.3335,17.4049c16.7525,16.9424 16.9813,38.5244 16.957,41.0171l0,116.844l-38.948,0ZM314.422,182.972l-38.948,0c15.3066,-20.0826 24.917,-41.2167 29.211,-63.2905l38.948,0c-2.62899,22.1225 -11.5968,43.3297 -29.211,63.2905Z" style="fill:#000;fill-rule:nonzero;"/></svg>