<?xml version="1.0" standalone="no"?><!DOCTYPE svg PUBLIC "-//W3C//DTD SVG 1.1//EN" "http://www.w3.org/Graphics/SVG/1.1/DTD/svg11.dtd"><svg width="100%" height="100%" viewBox="0 0 512 512" version="1.1" xmlns="http://www.w3.org/2000/svg" xmlns:xlink="http://www.w3.org/1999/xlink" xml:space="preserve" style="fill-rule:evenodd;clip-rule:evenodd;stroke-linecap:round;stroke-linejoin:round;stroke-miterlimit:1.41421;"><path id="Stroke-3" d="M485.437,255.999c-0.396392,62.7092 -102.84,114.53 -229.438,114.719c-126.714,0.189907 -229.438,-51.3623 -229.438,-114.719c0,-63.3572 102.724,-114.719 229.438,-114.719c126.713,0 229.838,51.3623 229.438,114.719Z" style="fill:none;stroke-width:16.39px;stroke:#000;"/><path id="php" d="M127.452,209.029l-24.5827,114.719l24.5827,0l8.19423,-32.7769l28.6798,0c24.4365,1.41674 48.1437,-15.7678 48.1437,-49.7591c0,-19.8274 -12.8529,-30.7665 -35.8524,-32.1832l-49.1654,0ZM139.743,274.583l8.19423,-49.1654l20.4856,0c11.0079,0 19.3476,4.52585 19.3476,14.3591c-1.572,27.8605 -14.1528,32.7776 -28.3047,34.415l-19.7227,0.391299ZM236.025,176.252l26.6313,0l-8.19423,32.7769l28.6798,0c22.9995,1.41676 30.9011,9.32064 28.0262,23.4839l-11.6377,58.4584l-26.6313,0l10.2428,-49.1654c1.43791,-7.08119 1.8685,-12.2914 -8.19423,-12.2914l-24.5827,0l-14.3399,61.4568l-26.6313,0l26.6313,-114.719ZM324.113,209.029l-24.5827,114.719l24.5827,0l8.19423,-32.7769l28.6798,0c24.4365,1.41674 48.1437,-15.7678 48.1437,-49.7591c0,-19.8274 -12.8529,-30.7665 -35.8524,-32.1832l-49.1654,0ZM336.405,274.583l8.19423,-49.1654l20.4856,0c11.0079,0 19.3476,4.52585 19.3476,14.3591c-1.572,27.8605 -14.1528,32.7776 -28.3047,34.415l-19.7227,0.391299Z" style="fill:#000;"/></svg>