<?xml version="1.0" standalone="no"?><!DOCTYPE svg PUBLIC "-//W3C//DTD SVG 1.1//EN" "http://www.w3.org/Graphics/SVG/1.1/DTD/svg11.dtd"><svg width="100%" height="100%" viewBox="0 0 512 512" version="1.1" xmlns="http://www.w3.org/2000/svg" xmlns:xlink="http://www.w3.org/1999/xlink" xml:space="preserve" style="fill-rule:evenodd;clip-rule:evenodd;stroke-linejoin:round;stroke-miterlimit:1.41421;"><path id="java-2" d="M202.084,355.335c0,0 -15.7004,9.16943 11.1731,12.2718c32.5553,3.73091 49.194,3.19519 85.0707,-3.62376c0,0 9.43187,5.9398 22.6053,11.0846c-80.4262,34.6181 -182.019,-2.00512 -118.849,-19.7327ZM193.359,311.702c0,0 -17.4655,12.8209 9.20891,15.5568c34.4944,3.52941 61.7357,3.81798 108.874,-5.18309c0,0 6.51908,6.55475 16.771,10.1394c-96.4503,27.9683 -203.879,2.20553 -134.854,-20.5131ZM275.107,229.347c19.8163,19.1597 -5.20744,36.4005 -5.20744,36.4005c0,0 50.3189,-21.8137 27.2097,-49.1291c-21.5832,-25.4732 -38.1352,-38.1298 51.4676,-81.7693c0,0 -140.646,29.4982 -73.4699,94.4979ZM381.476,380.621c0,0 11.6179,9.5599 -12.7952,16.9557c-46.4231,14.044 -193.217,18.2856 -233.996,0.559329c-14.6584,-6.36851 12.8305,-15.2064 21.4784,-17.0604c9.01848,-1.95288 14.1707,-1.58952 14.1707,-1.58952c-16.3015,-11.4681 -105.37,22.5195 -45.2419,32.2535c163.98,26.5566 298.918,-11.9589 256.384,-31.1187ZM183.192,286.415c20.363,3.28982 60.9547,2.5461 98.7661,-1.27822c30.9017,-3.14498 61.9301,-9.83382 61.9301,-9.83382c0,0 -10.8959,5.63131 -18.779,12.127c-75.8255,24.0656 -222.304,12.8708 -180.134,-11.7454c35.6624,-20.8033 64.6591,-18.4434 64.6591,-18.4434c0,-0.00115081 -74.6692,21.4022 -26.442,29.1739ZM332.672,338.549c77.079,-40.2269 41.4414,-78.8848 16.5653,-73.6759c-6.09709,1.27425 -8.81559,2.37822 -8.81559,2.37822c0,0 2.26414,-3.56063 6.58669,-5.10178c49.2111,-17.3765 87.0577,51.2474 -15.8862,78.4266c0,0.000954467 1.19256,-1.06953 1.54975,-2.02713ZM297.109,69.3999c0,0 42.6873,37.2007 -40.487,94.4044c-66.6985,45.887 -15.2099,72.0505 -0.0285757,101.943c-38.9324,-30.6005 -67.5033,-57.539 -48.3357,-82.6105c28.1337,-36.8032 106.075,-54.6463 88.8513,-113.737ZM407.501,398.967c-0.000952286,0 -5.17219,14.8756 -61.1462,26.6892c-63.1494,13.3201 -141.034,11.7656 -187.23,3.22859c0.000952831,-0.001069 9.45664,8.77185 58.0838,12.2674c73.9862,5.30838 187.601,-2.94459 190.292,-42.1852Z" style="fill:#000;"/></svg>