<?xml version="1.0" standalone="no"?><!DOCTYPE svg PUBLIC "-//W3C//DTD SVG 1.1//EN" "http://www.w3.org/Graphics/SVG/1.1/DTD/svg11.dtd"><svg width="100%" height="100%" viewBox="0 0 512 512" version="1.1" xmlns="http://www.w3.org/2000/svg" xmlns:xlink="http://www.w3.org/1999/xlink" xml:space="preserve" style="fill-rule:evenodd;clip-rule:evenodd;stroke-linejoin:round;stroke-miterlimit:1.41421;"><path id="nodejs-2" d="M241.891,432.785l-44.8307,-26.1303c-6.68912,-3.70024 -3.42418,-5.00536 -1.22119,-5.7587c8.93852,-3.06016 10.7429,-3.75739 20.2751,-9.08903c0.992351,-0.550719 2.30529,-0.337703 3.33244,0.258742l34.4306,20.1461c1.25494,0.674377 3.01396,0.674377 4.1666,0l134.249,-76.3542c1.25704,-0.708665 2.05535,-2.126 2.05535,-3.58802l0,-152.663c0,-1.49527 -0.798311,-2.89078 -2.0775,-3.64413l-134.204,-76.2867c-1.24334,-0.719061 -2.88741,-0.719061 -4.1434,0l-134.17,76.3095c-1.30134,0.730487 -2.12285,2.17068 -2.12285,3.62127l0,152.663c0,1.46201 0.821511,2.8461 2.11125,3.54334l36.7823,20.9327c19.9545,9.83094 33.2944,1.14392 33.2944,-10.4971l0,-156.43c0,-2.126 3.8589,-6.01655 6.01655,-6.01655l12.0331,0c2.12285,0 6.01655,3.89055 6.01655,6.01655l0,156.43c0,26.2415 -14.872,38.4043 -40.1236,38.4043c-7.76268,0 -13.8697,0 -30.9252,-8.27852l-35.2057,-19.9653c-8.69913,-4.96067 -14.0764,-14.218 -14.0764,-24.1394l0,-152.663c0,-9.9203 5.37725,-19.1777 14.0764,-24.1165l134.261,-76.4436c8.49244,-4.72376 19.7826,-4.72376 28.2076,0l134.25,76.4436c8.69914,4.96067 14.0985,14.1962 14.0985,24.1165l0,152.663c0,9.92134 -5.39939,19.1444 -14.0985,24.1394l-134.25,76.376c-4.2921,2.44085 -9.15471,3.71167 -14.1323,3.71167c-4.90901,0 -9.78323,-1.27082 -14.0753,-3.71167ZM225.917,280.055c0,-2.08344 1.66499,-3.74609 3.72348,-3.74609l16.655,0c1.86123,0 3.40484,1.35244 3.70021,3.19222c2.50761,17.1446 10.0082,25.8111 44.0849,25.8111c27.1234,0 38.6752,-6.21755 38.6752,-20.7801c0,-8.4003 -3.27435,-14.6404 -45.4313,-18.8072c-35.237,-3.53519 -57.0276,-11.4154 -57.0276,-39.9426c0,-26.2984 21.8998,-41.981 58.6157,-41.981c41.2587,0 61.6705,14.4858 64.254,45.5838c0.0991346,1.07499 -0.274126,2.10494 -0.974109,2.9035c-0.712124,0.742261 -1.69736,1.19683 -2.72711,1.19683l-16.7197,0c-1.73074,0 -3.26423,-1.24188 -3.61423,-2.93729c-4.00772,-18.0537 -13.764,-23.828 -40.2188,-23.828c-29.6199,0 -33.0581,10.451 -33.0581,18.2759c0,9.47529 4.06234,12.2355 44.0515,17.5992c39.5735,5.28692 58.3749,12.7893 58.3749,40.9398c0,28.3941 -23.401,44.6634 -64.2004,44.6634c-56.36,0 -68.1636,-26.1776 -68.1636,-48.1433Z" style="fill:#000;"/></svg>