<?xml version="1.0" standalone="no"?><!DOCTYPE svg PUBLIC "-//W3C//DTD SVG 1.1//EN" "http://www.w3.org/Graphics/SVG/1.1/DTD/svg11.dtd"><svg width="100%" height="100%" viewBox="0 0 512 512" version="1.1" xmlns="http://www.w3.org/2000/svg" xmlns:xlink="http://www.w3.org/1999/xlink" xml:space="preserve" style="fill-rule:evenodd;clip-rule:evenodd;stroke-linejoin:round;stroke-miterlimit:1.41421;"><path d="M257.31,334.138c2.07911,3.62071 5.99186,6.0583 10.4761,6.0583l72.1329,0l0,48.1121c0,24.4521 -17.924,35.4755 -39.6149,41.6515c-15.6443,4.4645 -29.7947,6.46055 -43.2991,6.46055c-14.6616,0 -28.5591,-2.35442 -42.7558,-6.46055c-22.7753,-6.58761 -42.7224,-18.6883 -42.7224,-41.6515l0,-84.1961c0,-23.2174 18.5256,-48.1121 42.0981,-48.1121l90.2101,0c28.6761,0 48.1121,-18.9402 48.1121,-48.1121l0,-36.0841l30.07,0c25.072,0 42.0981,18.042 48.1121,42.0981c8.51811,34.0724 8.99483,48.6325 0,75.1751c-8.70884,25.7825 -30.07,39.0911 -63.1471,39.0911l-99.3525,0c-4.39293,0 -8.25618,2.40209 -10.3195,5.96972ZM421.108,222.923c10.4417,38.0894 4.99184,39.5442 -3.007,63.1471c-9.83513,29.1219 -43.9887,30.07 -57.1331,30.07l-99.2312,0c-7.31755,0 -18.042,10.8452 -18.042,18.042c0,7.19685 10.7245,18.042 18.042,18.042l66.1541,0l0,36.0841c0,7.45749 -0.580311,11.9541 -6.63907,17.169c-5.70431,4.90976 -13.9913,8.93552 -24.6403,11.9676c-14.0156,3.9997 -26.9712,5.94362 -39.6066,5.94362c-12.6266,0 -25.0256,-1.88419 -39.017,-5.93059c-10.5186,-3.04294 -19.1336,-7.37821 -24.9152,-12.5367c-5.82135,-5.19646 -9.51804,-9.68436 -9.51804,-16.613l0,-84.1961c0,-16.2768 19.9152,-36.0841 36.0841,-36.0841l84.1961,0c36.3581,0 60.1401,-23.9539 60.1401,-60.1401l0,-24.056l22.4855,1.00385c10.8157,0 26.7006,9.09845 34.6475,38.0872ZM267.751,382.266c0,-9.9013 8.0941,-17.9572 18.042,-17.9572c9.94793,0 18.042,8.05593 18.042,17.9572c0,9.96398 -8.0941,18.0701 -18.042,18.0701c-9.94793,0 -18.042,-8.10608 -18.042,-18.0701ZM210.696,79.0659c-36.4838,6.38315 -43.1081,19.7448 -43.1081,44.3844l3.93848,36.3256l84.1961,0l0,12.028l-120.28,0c-25.0562,0 -47.2077,9.9505 -54.0706,38.325c-7.91599,32.5231 -8.26737,52.8183 0,86.7782c6.12925,25.2776 20.7645,43.289 45.8208,43.289l32.3059,0l0,-42.0981c0,-28.1819 18.8735,-54.1261 48.1121,-54.1261l90.2101,0c23.9723,0 42.0981,-15.3754 42.0981,-39.2173l0,-81.3045c0,-23.1393 -19.7104,-40.5226 -43.1081,-44.3844c-14.8099,-2.44142 -30.1778,-3.55106 -44.9158,-3.48321c-14.7392,0.0678476 -28.8142,1.31318 -41.1987,3.48321ZM257.309,334.14l0.00133596,-0.00230369l-0.00133596,-0.00232471l0,0.0046284ZM213.625,99.6358c9.93196,0 18.0414,8.1167 18.0414,18.0972c0,9.94535 -8.10945,17.9868 -18.0414,17.9868c-9.96646,0 -18.0426,-8.04146 -18.0426,-17.9868c0,-9.98054 8.07618,-18.0972 18.0426,-18.0972Z" style="fill:#000;"/></svg>