<?xml version="1.0" standalone="no"?><!DOCTYPE svg PUBLIC "-//W3C//DTD SVG 1.1//EN" "http://www.w3.org/Graphics/SVG/1.1/DTD/svg11.dtd"><svg width="100%" height="100%" viewBox="0 0 512 512" version="1.1" xmlns="http://www.w3.org/2000/svg" xmlns:xlink="http://www.w3.org/1999/xlink" xml:space="preserve" style="fill-rule:evenodd;clip-rule:evenodd;stroke-linejoin:round;stroke-miterlimit:1.41421;"><path d="M191.075,148.363c-10.7144,0 -15.9224,7.949 -11.6315,17.7569l7.03656,16.0836c4.29049,9.80684 16.4132,17.7569 27.1443,17.7569l87.017,0c10.7009,0 22.399,-8.06208 26.1702,-18.1187l5.75994,-15.3598c3.75251,-10.0067 -1.86817,-18.1187 -12.6056,-18.1187l-128.891,0ZM290.468,187.412c10.9765,0 19.8748,-5.93216 19.8748,-13.2498c0,-7.31769 -8.89824,-13.2498 -19.8748,-13.2498c-10.9765,0 -19.8748,5.93216 -19.8748,13.2498c0,7.31769 8.89824,13.2498 19.8748,13.2498ZM222.747,187.412c10.9765,0 19.8748,-5.93216 19.8748,-13.2498c0,-7.31769 -8.89824,-13.2498 -19.8748,-13.2498c-10.9765,0 -19.8748,5.93216 -19.8748,13.2498c0,7.31769 8.89824,13.2498 19.8748,13.2498ZM383.719,359.871c19.9706,10.1255 37.9196,20.8558 39.4927,27.1297l0,38.698c0,6.04826 -12.8993,19.349 -32.2483,19.349l-270.886,0c-19.349,0 -32.2483,-13.3007 -32.2483,-19.349l0,-38.698c2.52378,-12.2177 79.7254,-47.23 93.4229,-51.8974c13.6976,-4.66738 19.4462,-6.1496 22.671,-15.8529c0,0 -29.4441,-33.405 -38.698,-54.7933c-4.96471,-11.4748 -16.8252,-54.7923 -19.349,-80.6208c-2.52378,-25.8285 4.48672,-36.4083 8.69302,-47.7315c4.2063,-11.3232 39.5764,-65.1376 100.951,-65.1376c24.1536,0 45.1581,9.59402 61.6832,21.5327l27.3967,-25.5479l13.196,14.151l-25.338,23.6281l58.1452,-16.6729l7.38443,25.7526l-46.6012,13.3627c2.64966,3.88262 4.37314,7.01531 5.0849,8.93135c4.2063,11.3232 9.95491,27.6214 8.69302,47.7315c-1.26189,20.1101 -13.6942,69.5328 -19.349,80.6208c-12.6189,24.7433 -38.698,54.7933 -38.698,54.7933c3.22483,9.70329 8.97344,11.1855 21.705,15.8529c3.21742,1.1795 10.6218,4.22014 19.9456,8.32262c0.0933823,-0.289167 0.20825,-0.575214 0.345292,-0.856192l22.6028,-46.3426l-17.3908,-8.48204l8.48204,-17.3908l17.3908,8.48204l56.531,-115.906c1.5949,-3.27004 5.41473,-4.57546 8.58676,-3.02836l23.2946,11.3615c3.12919,1.52621 4.47047,5.41129 2.90016,8.6309l-56.531,115.906l17.3908,8.48204l-8.48204,17.3908l-17.3908,-8.48204l-22.6028,46.3426c-0.0560135,0.114845 -0.114771,0.227266 -0.176264,0.337167Z" style="fill:#000;"/></svg>